<svg width="269" height="84" viewBox="0 0 269 84" fill="none" xmlns="http://www.w3.org/2000/svg">
<g filter="url(#filter0_d_1_100)">
<rect x="16" y="6" width="237" height="52" rx="2" fill="#C4C4C4"/>
<rect x="16" y="6" width="237" height="52" rx="2" fill="url(#paint0_linear_1_100)"/>
<rect x="16" y="6" width="237" height="52" rx="2" stroke="url(#paint1_linear_1_100)" stroke-width="2"/>
<path d="M45.438 36.154C47.846 36.154 49.512 34.936 49.512 33.06C49.512 31.786 48.77 31.016 47.468 30.806C48.588 30.512 49.148 29.714 49.148 28.594C49.148 26.984 47.706 25.85 45.55 25.85C43.352 25.85 41.924 26.97 41.658 29.168H43.8C43.982 28.174 44.43 27.642 45.494 27.642C46.334 27.642 46.866 28.048 46.866 28.832C46.866 29.658 46.488 30.092 45.48 30.092H44.472V31.59H45.536C46.698 31.59 47.146 31.996 47.146 32.892C47.146 33.802 46.572 34.334 45.466 34.334C44.22 34.334 43.716 33.634 43.548 32.626H41.392C41.658 34.88 43.142 36.154 45.438 36.154ZM52.9774 36.154C54.1394 36.154 54.7554 35.72 55.1894 35.118V36H57.1634V31.226C57.1634 30.232 56.8554 29.56 56.3094 29.126C55.7494 28.692 54.9934 28.51 54.0974 28.51C53.2014 28.51 52.4034 28.706 51.8294 29.112C51.2554 29.518 50.8634 30.162 50.8074 31.016H52.7254C52.8234 30.386 53.1734 29.98 53.9714 29.98C54.9094 29.98 55.1614 30.442 55.1614 31.324V31.618H54.3354C53.2154 31.618 52.2634 31.772 51.5914 32.15C50.9194 32.528 50.5274 33.116 50.5274 33.97C50.5274 34.74 50.8074 35.286 51.2554 35.636C51.7034 35.986 52.3054 36.154 52.9774 36.154ZM53.5794 34.74C52.8374 34.74 52.5154 34.404 52.5154 33.858C52.5154 33.074 53.2014 32.822 54.3774 32.822H55.1614V33.438C55.1614 34.264 54.4754 34.74 53.5794 34.74ZM63.4138 30.12V36H65.4158V28.678H58.8358V36H60.8378V30.12H63.4138ZM70.7163 34.614C69.5543 34.614 68.9243 33.774 68.9243 32.374V32.262C68.9243 30.862 69.5963 30.05 70.7163 30.05C71.8503 30.05 72.5083 30.89 72.5083 32.29V32.388C72.5083 33.788 71.8503 34.614 70.7163 34.614ZM70.7023 36.154C71.8083 36.154 72.7743 35.79 73.4603 35.132C74.1463 34.474 74.5663 33.536 74.5663 32.374V32.262C74.5663 31.128 74.1463 30.19 73.4743 29.532C72.7883 28.874 71.8223 28.51 70.7163 28.51C69.6103 28.51 68.6443 28.888 67.9583 29.546C67.2723 30.204 66.8523 31.17 66.8523 32.304V32.416C66.8523 33.55 67.2723 34.502 67.9583 35.132C68.6443 35.79 69.5963 36.154 70.7023 36.154ZM78.1132 32.99C78.2112 32.136 78.2392 31.072 78.2532 30.12H80.1432V36H82.1452V28.678H76.5032C76.5032 29.238 76.4892 29.77 76.4752 30.274C76.4332 31.128 76.4052 32.094 76.3632 32.584C76.2652 33.802 76.0412 34.474 75.4952 34.474C75.3832 34.474 75.3132 34.46 75.2572 34.446C75.2152 34.432 75.2012 34.432 75.1872 34.418V36.028C75.2292 36.042 75.2852 36.07 75.3552 36.084C75.4672 36.126 75.6212 36.14 75.8872 36.14C77.3712 36.14 77.8892 35.006 78.1132 32.99ZM88.6827 32.99V36H90.6847V28.678H88.6827V31.548H85.9667V28.678H83.9647V36H85.9667V32.99H88.6827ZM92.5096 36H94.5116L97.3396 31.114V36H99.3416V28.678H97.3396L94.5116 33.564V28.678H92.5096V36ZM106.807 30.12V28.678H100.451V30.12H102.621V36H104.637V30.12H106.807ZM107.959 28.678V36H111.235C113.069 36 114.119 35.188 114.119 33.564V33.522C114.119 31.898 113.013 31.002 111.291 31.002H109.961V28.678H107.959ZM110.843 34.586H109.961V32.416H110.843C111.669 32.416 112.075 32.78 112.075 33.508V33.55C112.075 34.236 111.669 34.586 110.843 34.586ZM121.944 36.154C124.142 36.154 125.808 34.726 125.808 32.43V32.332C125.808 30.246 124.436 28.692 122.42 28.692C120.978 28.692 120.208 29.308 119.718 30.162H119.634C119.816 28.342 120.614 27.208 122.476 27.096L122.938 27.082C124.212 27.012 124.716 26.872 125.122 26.69V25.15C124.73 25.304 124.072 25.36 122.994 25.416L122.448 25.43C119.438 25.584 118.094 27.642 118.094 31.114V31.576C118.094 34.796 119.592 36.154 121.944 36.154ZM121.958 34.614C120.796 34.614 120.166 33.802 120.166 32.458V32.388C120.166 31.03 120.838 30.232 122.014 30.232C123.148 30.232 123.75 31.016 123.75 32.36V32.444C123.75 33.83 123.092 34.614 121.958 34.614ZM127.238 28.678V38.492H129.268V34.88C129.646 35.594 130.472 36.154 131.606 36.154C132.516 36.154 133.314 35.818 133.888 35.16C134.448 34.53 134.798 33.592 134.798 32.374V32.262C134.798 31.044 134.448 30.106 133.874 29.476C133.3 28.846 132.502 28.51 131.606 28.51C130.528 28.51 129.674 29.112 129.268 29.826V28.678H127.238ZM131.004 34.572C129.884 34.572 129.198 33.858 129.198 32.388V32.276C129.198 30.806 129.926 30.064 130.99 30.064C132.012 30.064 132.74 30.778 132.74 32.276V32.388C132.74 33.83 132.124 34.572 131.004 34.572ZM136.082 36H138.084L140.912 31.114V36H142.914V28.678H140.912L138.084 33.564V28.678H136.082V36ZM150.239 28.524V25.36H148.251V28.524C146.039 28.594 144.331 29.966 144.331 32.304V32.416C144.331 34.782 146.039 36.028 148.251 36.14V38.492H150.239V36.14C152.437 36.07 154.159 34.698 154.159 32.346V32.234C154.159 29.868 152.451 28.636 150.239 28.524ZM148.251 29.98V34.684C147.075 34.586 146.375 33.774 146.375 32.36V32.262C146.375 30.876 147.089 30.05 148.251 29.98ZM150.239 34.684V29.98C151.415 30.078 152.101 30.89 152.101 32.29V32.402C152.101 33.76 151.373 34.586 150.239 34.684Z" fill="white"/>
<path d="M235.46 32.4596C235.713 32.2058 235.713 31.7942 235.46 31.5404L231.323 27.4038C231.069 27.15 230.658 27.15 230.404 27.4038C230.15 27.6576 230.15 28.0692 230.404 28.323L234.081 32L230.404 35.677C230.15 35.9308 230.15 36.3424 230.404 36.5962C230.658 36.85 231.069 36.85 231.323 36.5962L235.46 32.4596ZM213 32.65H235V31.35H213V32.65Z" fill="white"/>
</g>
<defs>
<filter id="filter0_d_1_100" x="0" y="0" width="269" height="84" filterUnits="userSpaceOnUse" color-interpolation-filters="sRGB">
<feFlood flood-opacity="0" result="BackgroundImageFix"/>
<feColorMatrix in="SourceAlpha" type="matrix" values="0 0 0 0 0 0 0 0 0 0 0 0 0 0 0 0 0 0 127 0" result="hardAlpha"/>
<feOffset dy="10"/>
<feGaussianBlur stdDeviation="7.5"/>
<feColorMatrix type="matrix" values="0 0 0 0 0.180392 0 0 0 0 0.486275 0 0 0 0 0.921569 0 0 0 0.15 0"/>
<feBlend mode="normal" in2="BackgroundImageFix" result="effect1_dropShadow_1_100"/>
<feBlend mode="normal" in="SourceGraphic" in2="effect1_dropShadow_1_100" result="shape"/>
</filter>
<linearGradient id="paint0_linear_1_100" x1="302.633" y1="31.7158" x2="33.9239" y2="-39.5935" gradientUnits="userSpaceOnUse">
<stop stop-color="#5C9FF9"/>
<stop offset="1" stop-color="#0058DC"/>
</linearGradient>
<linearGradient id="paint1_linear_1_100" x1="302.633" y1="31.7158" x2="33.9239" y2="-39.5935" gradientUnits="userSpaceOnUse">
<stop stop-color="#5C9FF9"/>
<stop offset="1" stop-color="#0058DC"/>
</linearGradient>
</defs>
</svg>
